<?xml version="1.0" standalone="no"?>
<!DOCTYPE svg PUBLIC "-//W3C//DTD SVG 20010904//EN"
 "http://www.w3.org/TR/2001/REC-SVG-20010904/DTD/svg10.dtd">
<svg version="1.0" xmlns="http://www.w3.org/2000/svg"
 width="800.000000pt" height="800.000000pt" viewBox="0 0 800.000000 800.000000"
 preserveAspectRatio="xMidYMid meet">
<metadata>
Created by potrace 1.14, written by Peter Selinger 2001-2017
</metadata>
<g transform="translate(0.000000,800.000000) scale(0.100000,-0.100000)"
fill="#000000" stroke="none">
<path d="M0 4000 l0 -4000 4000 0 4000 0 0 4000 0 4000 -4000 0 -4000 0 0
-4000z m1395 580 l-420 -420 3025 0 3025 0 -420 420 -420 420 83 82 82 83 558
-558 557 -557 -557 -557 -558 -558 -82 83 -83 82 415 415 415 415 -3015 0
-3015 0 415 -415 415 -415 -83 -82 -82 -83 -555 555 -555 555 557 557 558 558
80 -80 80 -80 -420 -420z"/>
</g>
</svg>
